<svg version="1.1" id="Layer_1" xmlns="http://www.w3.org/2000/svg" xmlns:xlink="http://www.w3.org/1999/xlink" x="0px" y="0px"
	 viewBox="0 0 128 128" style="enable-background:new 0 0 128 128;" xml:space="preserve">
<style type="text/css">
	.st0{fill:#117BBB;}
	.st1{fill:#2FA9E1;}
	.st2{fill:#8AD6F6;}
	.st3{fill:#115C9D;}
	.st4{fill:#2B365E;}
	.st5{fill:#141227;}
	.st6{fill:#2390CF;}
</style>
<g>
	<path class="st0" d="M54.9,23.3l-8.6,15.8c-0.5-0.1-1-0.1-1.5-0.1c-1.7,0-3.2,0.4-4.5,1L25.7,23.7l-1.3-3.2h27.8
		C52.6,21.7,53.6,22.7,54.9,23.3z"/>
	<path class="st1" d="M66,6.7L60.3,15c-0.6-0.2-1.3-0.2-2-0.2c-0.9,0-1.8,0.1-2.6,0.4l0,0L43.2,3.7L44.1,3c0,0,13.1,1.1,20.5,2.5
		L66,6.7z"/>
	<path class="st1" d="M83.8,19.8l-0.2,1.3c0,0-13.6-2-19-2.1c-0.1-1.2-0.8-2.2-1.9-3l5.6-8.1l2.4,0.3L83.8,19.8z"/>
	<polygon class="st2" points="73,7.4 73.2,7.9 85.1,18.8 88.1,18.8 89.7,12.4 88,10.8 73.2,7.1 	"/>
	<path class="st2" d="M90.2,20.1l1.7-6.7l1.5,0.3L105.1,25v0.5c0,0-9.9-2.5-12.7-2.8C92.4,22.7,91.3,20.8,90.2,20.1z"/>
	<path class="st3" d="M38,41.7c-1.1,1.1-1.8,2.5-1.9,4l0,0L4,49.5c0,0-0.9-2.5-2.5-3.2l16.4-21.4c0,0,3.9,0.3,5.3,0l14.6,16.4
		L38,41.7z"/>
	<path class="st4" d="M1.5,57.7c0,0,2.1-1.7,3-5l32.3-4.2c0,0,1.3,2.7,2.9,3.3L26.5,81.1c0,0-3.8,0.3-5.9,1.2L1.5,57.7z"/>
	<path class="st4" d="M42.7,53.1c0,0,3.6,0.6,5.3-0.4l18.9,21.2c0,0-2.1,2.7-1.7,5.9l-31,6.7c0,0-1.2-3.3-4.1-4.2L42.7,53.1z"/>
	<path class="st1" d="M92.6,25.9l0.5-1.1l12.8,2.8c0,0,0.7,1.1,1.6,1.6l0.3,10.9h-1.9L92.6,25.9z"/>
	<path class="st1" d="M109.7,41.3V30.6l1,0.3l11.1,13v1l-9.9-0.9C111.8,44,111,41.9,109.7,41.3z"/>
	<path class="st5" d="M32.2,96.1c0,0,2.1-2.6,2.5-6.2l31.1-7.2c0,0,0.5,2.8,4.1,4.9l-8.3,32.2c0,0-4.5,0.6-5.8,2.3L32.2,96.1z"/>
	<path class="st5" d="M64.9,120.5l7.9-31.8c0,0,3.6-0.2,5.9-1.6L96.6,108c0,0-0.8,2.5-0.8,5.5L68.5,125
		C68.5,125,67.3,121.8,64.9,120.5z"/>
	<path class="st4" d="M80.3,84.9c0,0,1.5-1.6,1.3-5.7l21.1-4.5c0,0,0.8,2,2.7,3.1l-3.1,26.3c0,0-3.1,0.3-3.8,1.7L80.3,84.9z"/>
	<polygon class="st6" points="112.6,48.2 112.6,46.1 122.6,47.2 124.1,49 125.6,63 124.4,63 	"/>
	<path class="st0" d="M109.5,49.5h1.9l11.9,15.1v2.9l-12.1,2.5c0,0-0.5-2-2.6-2.9L109.5,49.5z"/>
	<path class="st3" d="M112.2,72.5l11.9-2.4c0,0,1.2,2.1,2.1,2.4l0.3,20c0,0-1.4,0.2-1.7,0.6l-13-16.8
		C111.8,76.4,112.5,75,112.2,72.5z"/>
	<path class="st4" d="M107.6,78.6c0,0,1.4,0.1,2.7-0.7l13.2,17.3c0,0-0.6,2.2-0.3,4.1l-15.8,8.7c0,0-1.6-2-2.9-2.8L107.6,78.6z"/>
	<path class="st6" d="M53.7,16.6l-0.5-0.5c0,0,0,0,0,0L40.7,4.5c0,0-2.1,0.1-2.9,0L25.7,16l1.5,1.9l25,0.3l0,0l0.3,0.1
		C52.8,17.7,53.2,17.1,53.7,16.6z"/>
</g>
</svg>