<svg version="1.1" id="Layer_1" xmlns="http://www.w3.org/2000/svg" xmlns:xlink="http://www.w3.org/1999/xlink" x="0px" y="0px"
	 viewBox="0 0 720 720" style="enable-background:new 0 0 720 720;" xml:space="preserve">
<style type="text/css">
	.st0{fill:#117BBB;}
	.st1{fill:#2FA9E1;}
	.st2{fill:#8AD6F6;}
	.st3{fill:#115C9D;}
	.st4{fill:#2B365E;}
	.st5{fill:#141227;}
	.st6{fill:#2390CF;}
	.st7{fill:#0F132F;}
</style>
<path class="st0" d="M314.1,158.3l-15.4,30.2c-0.9-0.1-1.8-0.2-2.8-0.2c-3,0-5.8,0.7-8.1,1.9L261.7,159l-2.3-6.2h49.8
	C309.9,155.1,311.7,157.1,314.1,158.3z"/>
<path class="st1" d="M333.9,126.5l-10.2,15.8c-1.1-0.3-2.3-0.5-3.6-0.5c-1.7,0-3.2,0.3-4.6,0.8l0,0l-22.3-21.8l1.5-1.5
	c0,0,23.5,2.1,36.8,4.8L333.9,126.5z"/>
<path class="st1" d="M365.8,151.6l-0.4,2.4c0,0-24.4-3.9-34-4c-0.2-2.2-1.4-4.2-3.3-5.7l10.1-15.6l4.4,0.5L365.8,151.6z"/>
<polygon class="st2" points="346.5,127.8 346.8,128.7 368.2,149.6 373.5,149.6 376.4,137.3 373.4,134.2 346.8,127.2 "/>
<path class="st2" d="M377.3,152.1l3-12.8l2.7,0.7l21.1,21.6v0.9c0,0-17.7-4.8-22.8-5.4C381.3,157.1,379.4,153.4,377.3,152.1z"/>
<path class="st3" d="M283.7,193.4c-2,2.1-3.2,4.8-3.4,7.7l0,0l-57.4,7.4c0,0-1.6-4.8-4.6-6.1l29.4-41.1c0,0,6.9,0.6,9.4,0l26.3,31.5
	L283.7,193.4z"/>
<path class="st4" d="M218.3,224.1c0,0,3.9-3.3,5.4-9.5l57.9-8.1c0,0,2.3,5.2,5.2,6.4l-23.6,56c0,0-6.7,0.5-10.6,2.4L218.3,224.1z"/>
<path class="st4" d="M292.2,215.4c0,0,6.5,1.2,9.5-0.8l33.8,40.6c0,0-3.8,5.1-3,11.3l-55.6,12.9c0,0-2.2-6.3-7.3-8.1L292.2,215.4z"
	/>
<path class="st1" d="M381.6,163.1l0.9-2.1l22.9,5.4c0,0,1.3,2.2,2.8,3.1l0.5,20.8h-3.4L381.6,163.1z"/>
<path class="st1" d="M412.2,192.7v-20.5l1.7,0.7l19.8,24.8v1.8l-17.8-1.7C416,197.8,414.6,193.9,412.2,192.7z"/>
<path class="st5" d="M273.3,297.8c0,0,3.8-5,4.6-11.9l55.8-13.8c0,0,1,5.4,7.3,9.4l-15,61.7c0,0-8.1,1.1-10.4,4.4L273.3,297.8z"/>
<path class="st5" d="M332,344.6l14.1-61c0,0,6.5-0.4,10.6-3l32.1,39.9c0,0-1.5,4.8-1.5,10.6l-48.8,22.1
	C338.5,353.3,336.3,347,332,344.6z"/>
<path class="st4" d="M359.6,276.4c0,0,2.6-3,2.3-11l37.7-8.7c0,0,1.5,3.9,4.8,5.9l-5.6,50.4c0,0-5.6,0.7-6.8,3.3L359.6,276.4z"/>
<polygon class="st6" points="417.4,205.9 417.4,202 435.3,204 438.2,207.5 440.9,234.3 438.7,234.3 "/>
<path class="st0" d="M412,208.5h3.4l21.3,29v5.5l-21.6,4.9c0,0-0.8-3.8-4.7-5.6L412,208.5z"/>
<path class="st3" d="M416.8,252.5l21.3-4.6c0,0,2.2,4,3.8,4.6l0.5,38.4c0,0-2.4,0.3-3.1,1.2L416,260
	C416,260,417.4,257.4,416.8,252.5z"/>
<path class="st4" d="M408.6,264.3c0,0,2.4,0.2,4.9-1.4l23.7,33.2c0,0-1.1,4.1-0.5,7.8l-28.4,16.7c0,0-2.8-3.9-5.1-5.5L408.6,264.3z"
	/>
<path class="st6" d="M311.9,145.4l-0.9-0.9c0,0,0,0,0,0l-22.5-22.5c0,0-3.8,0.2-5.2,0l-21.6,22l2.7,3.6l44.8,0.6l0,0l0.6,0.2
	C310.2,147.4,311,146.3,311.9,145.4z"/>
<polygon class="st7" points="176.2,390.8 66.2,390.8 33.7,423 33.7,510.5 64.9,543.7 159,543.7 190.9,512.2 190.9,452 105.3,452 
	105.3,479.6 153.1,479.6 153.1,499.5 140.6,512 83.2,512 70.7,499.6 70.7,435.7 83.6,422.8 176.2,422.8 "/>
<path class="st7" d="M329.2,390.8H211.4v152.9h118.1l31.6-31.9V423L329.2,390.8z M323.6,500.1l-12,12.7h-63.8v-90.1h63.1l12.7,13
	V500.1z"/>
<polygon class="st7" points="515.6,390.8 386.1,390.8 386.1,543.7 422.5,543.7 422.5,490.7 492.5,490.7 492.5,460.8 423.2,460.8 
	423.2,422.7 515.6,422.7 "/>
<path class="st7" d="M625.3,390.8h-52.1L512.4,533v10.7h35.5l12.7-30.9h76.1l12.4,30.9h36.4V533L625.3,390.8z M572.9,480.9
	l23.1-57.6h5.5l22.9,57.6H572.9z"/>
</svg>